<svg xmlns="http://www.w3.org/2000/svg" viewBox="0 0 32 32"><g fill="none" fill-rule="evenodd"><path fill="#FFF" d="M16 32C7.18 32 0 24.82 0 16S7.18 0 16 0s16 7.18 16 16-7.18 16-16 16"/><path fill="#0B70B5" d="M16 3.38A12.63 12.63 0 0 0 3.38 16c0 6.96 5.66 12.62 12.62 12.62 6.96 0 12.62-5.66 12.62-12.62 0-6.96-5.66-12.62-12.62-12.62M16 32C7.18 32 0 24.82 0 16S7.18 0 16 0s16 7.18 16 16-7.18 16-16 16"/><path fill="#0B70B5" d="M19.39 20.19s-.64 1.74-3.21 1.74h-2.21v-9.4c0-.72.64-1.41 1.37-1.41h.02v-2.1H8.73v2.1h-.02c.74 0 1.42.69 1.42 1.42v7.97c0 .74-.68 1.42-1.42 1.42h.02v3.14h12.22V20.2h-1.56z"/><path fill="#ED8B18" d="M17.64 5.95c-1.95 0-3.75.63-5.2 1.68h4.32v4.43c-1.05.17-1.4.87-1.4 1.72v6.76h1.22c1.13 0 2.04-.7 2.1-1.75h3.66V22a8.61 8.61 0 0 0 3.98-7.3 8.7 8.7 0 0 0-8.68-8.75"/></g></svg>